<svg width="512" height="512" viewBox="0 0 512 512" fill="none" xmlns="http://www.w3.org/2000/svg">
<path d="M104.286 203.52C97.8855 203.349 92.8935 202.709 89.3095 201.6C85.7255 200.491 83.1655 199.168 81.6295 197.632C80.1788 196.096 79.2828 194.603 78.9415 193.152C78.6002 191.616 78.4295 190.421 78.4295 189.568C78.4295 188.715 78.5575 187.392 78.8135 185.6C79.0695 183.808 79.8802 181.931 81.2455 179.968C82.6108 178.005 84.9575 176.299 88.2855 174.848C91.6988 173.397 96.5202 172.587 102.75 172.416C109.576 172.245 114.824 172.629 118.494 173.568C122.163 174.507 124.766 175.616 126.302 176.896C127.923 178.176 128.904 179.328 129.246 180.352C129.587 181.291 129.758 181.76 129.758 181.76C129.758 182.869 129.63 184.021 129.374 185.216C129.118 186.325 128.35 187.264 127.07 188.032C125.875 188.715 123.784 189.013 120.798 188.928C118.408 188.843 116.616 188.629 115.422 188.288C114.227 187.947 113.331 187.563 112.734 187.136C112.222 186.624 111.667 186.112 111.069 185.6C110.558 185.088 109.747 184.661 108.638 184.32C107.614 183.979 105.95 183.765 103.646 183.68C100.83 183.595 98.6962 183.808 97.2455 184.32C95.8802 184.747 94.9415 185.301 94.4295 185.984C94.0028 186.667 93.7468 187.264 93.6615 187.776C93.6615 188.203 93.6615 188.416 93.6615 188.416C93.6615 188.416 93.7468 188.757 93.9175 189.44C94.1735 190.123 95.0268 190.805 96.4775 191.488C98.0135 192.171 100.744 192.555 104.67 192.64C112.094 192.896 117.768 193.621 121.694 194.816C125.704 195.925 128.52 197.248 130.142 198.784C131.848 200.32 132.83 201.856 133.086 203.392C133.427 204.843 133.598 205.995 133.598 206.848C133.598 207.701 133.299 209.024 132.702 210.816C132.19 212.608 131.038 214.485 129.246 216.448C127.454 218.411 124.68 220.117 120.926 221.568C117.256 223.019 112.307 223.829 106.078 224C99.3362 224.171 94.0882 223.787 90.3335 222.848C86.6642 221.909 84.0188 220.8 82.3975 219.52C80.8615 218.24 79.9228 217.131 79.5815 216.192C79.2402 215.168 79.0695 214.656 79.0695 214.656C79.0695 213.461 79.1975 212.309 79.4535 211.2C79.7948 210.091 80.5628 209.195 81.7575 208.512C83.0375 207.744 85.1282 207.403 88.0295 207.488C90.5042 207.573 92.2962 207.787 93.4055 208.128C94.6002 208.469 95.4962 208.896 96.0935 209.408C96.6908 209.835 97.2455 210.304 97.7575 210.816C98.2695 211.328 99.0802 211.755 100.19 212.096C101.299 212.437 102.963 212.651 105.182 212.736C107.998 212.821 110.088 212.651 111.454 212.224C112.904 211.712 113.886 211.115 114.398 210.432C114.91 209.749 115.166 209.195 115.166 208.768C115.166 208.256 115.166 208 115.166 208C115.166 208 115.08 207.659 114.91 206.976C114.739 206.208 113.886 205.483 112.35 204.8C110.899 204.032 108.211 203.605 104.286 203.52ZM139.257 179.712C139.257 179.712 139.257 179.328 139.257 178.56C139.342 177.792 139.641 176.939 140.153 176C140.665 174.976 141.603 174.08 142.969 173.312C144.419 172.544 146.467 172.16 149.113 172.16C152.355 172.16 154.659 172.629 156.025 173.568C157.475 174.421 158.329 175.488 158.585 176.768C158.926 177.963 159.011 179.157 158.841 180.352C158.67 181.461 158.585 182.229 158.585 182.656C158.585 182.997 158.585 184.277 158.585 186.496C158.67 188.629 158.841 191.189 159.097 194.176C159.353 197.163 159.779 200.107 160.377 203.008C160.974 205.909 161.827 208.341 162.937 210.304C164.046 212.181 165.497 213.077 167.289 212.992C169.081 212.907 170.275 211.968 170.873 210.176C171.47 208.384 171.683 206.165 171.513 203.52C171.427 200.875 171.129 198.229 170.617 195.584C170.105 192.939 169.593 190.677 169.081 188.8C168.569 186.837 168.312 185.728 168.312 185.472C168.312 185.131 168.185 184.533 167.929 183.68C167.758 182.741 167.758 181.717 167.929 180.608C168.185 179.499 168.91 178.475 170.104 177.536C171.299 176.597 173.262 176 175.993 175.744C178.723 175.488 180.857 175.659 182.393 176.256C184.014 176.768 185.166 177.451 185.849 178.304C186.617 179.157 187.086 179.968 187.257 180.736C187.427 181.419 187.513 181.76 187.513 181.76C187.513 181.76 187.811 182.784 188.409 184.832C189.006 186.88 189.561 189.525 190.073 192.768C190.585 195.925 190.755 199.296 190.585 202.88C190.499 206.464 189.731 209.877 188.281 213.12C186.915 216.277 184.611 218.88 181.369 220.928C178.211 222.976 173.774 224 168.057 224C162.339 224 157.646 222.933 153.977 220.8C150.307 218.667 147.406 215.936 145.273 212.608C143.225 209.195 141.731 205.611 140.793 201.856C139.854 198.101 139.299 194.56 139.129 191.232C138.958 187.819 138.915 185.045 139.001 182.912C139.171 180.779 139.257 179.712 139.257 179.712ZM238.881 140.544C238.881 140.544 239.393 140.629 240.417 140.8C241.526 140.885 242.763 141.141 244.129 141.568C245.494 141.909 246.731 142.507 247.841 143.36C249.035 144.128 249.675 145.237 249.761 146.688C249.846 147.627 249.974 149.675 250.145 152.832C250.315 155.904 250.486 159.573 250.657 163.84C250.913 168.107 251.126 172.544 251.297 177.152C251.553 181.675 251.766 185.941 251.937 189.952C252.107 193.877 252.235 197.077 252.321 199.552C252.491 202.027 252.577 203.264 252.577 203.264C252.577 203.264 252.534 203.776 252.449 204.8C252.449 205.824 252.193 207.104 251.681 208.64C251.254 210.176 250.443 211.669 249.249 213.12C246.689 216.277 243.446 218.88 239.521 220.928C235.595 222.976 230.219 224 223.393 224C218.87 224 214.518 223.147 210.337 221.44C206.241 219.733 202.87 217.045 200.225 213.376C197.665 209.621 196.427 204.757 196.513 198.784C196.598 194.261 197.579 190.293 199.457 186.88C201.419 183.467 203.979 180.651 207.137 178.432C210.294 176.128 213.793 174.421 217.633 173.312C221.558 172.203 225.483 171.648 229.409 171.648L228.513 149.504C228.513 149.504 228.427 149.12 228.257 148.352C228.086 147.499 228.171 146.517 228.513 145.408C228.939 144.299 229.921 143.275 231.457 142.336C232.993 141.397 235.467 140.8 238.881 140.544ZM229.793 182.784C227.83 182.613 225.953 183.339 224.161 184.96C222.369 186.581 220.875 188.672 219.681 191.232C218.571 193.707 218.017 196.181 218.017 198.656C218.017 202.325 218.614 205.483 219.809 208.128C221.089 210.773 222.753 212.096 224.801 212.096C226.166 212.096 227.318 211.541 228.257 210.432C229.195 209.323 229.921 208.213 230.433 207.104C230.945 205.909 231.201 205.312 231.201 205.312L229.793 182.784ZM284.39 172.032C287.547 171.776 289.979 172.117 291.686 173.056C293.392 173.995 294.416 174.549 294.758 174.72C295.611 175.147 296.379 175.616 297.062 176.128C297.83 176.64 298.214 176.896 298.214 176.896C298.214 176.896 298.854 177.109 300.134 177.536C301.414 177.963 302.907 178.987 304.614 180.608C306.32 182.144 307.899 184.576 309.35 187.904C310.8 191.232 311.654 195.755 311.91 201.472C312.08 205.312 311.483 208.555 310.118 211.2C308.752 213.76 306.918 215.893 304.614 217.6C302.395 219.221 299.963 220.501 297.318 221.44C294.758 222.293 292.283 222.891 289.894 223.232C287.59 223.573 285.67 223.787 284.134 223.872C282.683 223.957 281.958 224 281.958 224C281.958 224 281.104 224 279.398 224C277.776 224 275.728 223.744 273.253 223.232C270.779 222.635 268.304 221.525 265.83 219.904C263.44 218.197 261.435 215.723 259.814 212.48C258.278 209.237 257.595 204.928 257.766 199.552C257.936 194.176 258.918 189.781 260.71 186.368C262.587 182.869 264.806 180.139 267.366 178.176C270.011 176.213 272.613 174.805 275.174 173.952C277.819 173.099 279.995 172.587 281.702 172.416C283.494 172.16 284.39 172.032 284.39 172.032ZM284.902 184.576C284.902 184.576 284.347 185.259 283.238 186.624C282.214 187.989 281.147 189.909 280.038 192.384C279.014 194.859 278.502 197.76 278.502 201.088C278.502 204.331 278.886 206.891 279.654 208.768C280.422 210.645 281.232 212.011 282.086 212.864C283.024 213.632 283.75 214.016 284.262 214.016C284.774 214.016 285.584 213.803 286.694 213.376C287.888 212.864 288.955 211.755 289.894 210.048C290.832 208.341 291.259 205.653 291.174 201.984C291.088 198.912 290.747 196.437 290.15 194.56C289.638 192.683 288.912 191.019 287.974 189.568C287.12 188.032 286.096 186.368 284.902 184.576ZM323.029 217.216C323.029 217.216 322.943 216.405 322.773 214.784C322.602 213.077 322.346 210.901 322.005 208.256C321.663 205.525 321.237 202.624 320.725 199.552C320.298 196.48 319.786 193.536 319.189 190.72C318.591 187.819 317.951 185.344 317.269 183.296C316.415 180.736 316.287 178.816 316.885 177.536C317.482 176.171 318.378 175.232 319.573 174.72C320.853 174.208 322.005 173.952 323.029 173.952C324.138 173.867 324.693 173.824 324.693 173.824C324.693 173.824 325.29 173.824 326.485 173.824C327.679 173.739 329.087 173.867 330.708 174.208C332.33 174.549 333.823 175.232 335.189 176.256C336.554 177.28 337.407 178.901 337.749 181.12C338.261 184.021 338.602 185.856 338.773 186.624C338.943 187.392 339.029 187.691 339.029 187.52C339.114 187.264 339.157 187.136 339.157 187.136L353.621 173.952C353.621 173.952 354.09 173.611 355.029 172.928C356.053 172.16 357.631 171.605 359.765 171.264C361.983 170.837 364.842 171.136 368.341 172.16C370.815 172.843 372.223 173.739 372.565 174.848C372.991 175.957 372.863 176.981 372.181 177.92C371.583 178.859 371.071 179.541 370.645 179.968C370.389 180.224 369.621 180.992 368.341 182.272C367.061 183.467 365.525 184.917 363.733 186.624C362.026 188.245 360.319 189.867 358.613 191.488C356.906 193.109 355.498 194.475 354.389 195.584C353.279 196.693 352.725 197.248 352.725 197.248L373.333 211.584C373.333 211.584 373.717 211.925 374.485 212.608C375.338 213.205 376.106 214.016 376.789 215.04C377.471 216.064 377.685 217.173 377.429 218.368C377.258 219.477 376.106 220.544 373.973 221.568C371.839 222.592 369.749 223.019 367.701 222.848C365.738 222.592 363.946 222.08 362.325 221.312C360.789 220.544 359.551 219.819 358.613 219.136C357.674 218.453 357.205 218.112 357.205 218.112L342.613 208L343.509 218.496C343.509 218.496 343.423 218.965 343.253 219.904C343.082 220.757 342.314 221.653 340.949 222.592C339.669 223.531 337.365 224 334.037 224C330.709 224 328.277 223.445 326.741 222.336C325.205 221.141 324.181 219.989 323.669 218.88C323.242 217.771 323.029 217.216 323.029 217.216ZM383.507 179.712C383.507 179.712 383.507 179.328 383.507 178.56C383.592 177.792 383.891 176.939 384.403 176C384.915 174.976 385.853 174.08 387.219 173.312C388.669 172.544 390.717 172.16 393.363 172.16C396.605 172.16 398.909 172.629 400.275 173.568C401.725 174.421 402.579 175.488 402.835 176.768C403.176 177.963 403.261 179.157 403.091 180.352C402.92 181.461 402.835 182.229 402.835 182.656C402.835 182.997 402.835 184.277 402.835 186.496C402.92 188.629 403.091 191.189 403.347 194.176C403.603 197.163 404.029 200.107 404.627 203.008C405.224 205.909 406.077 208.341 407.187 210.304C408.296 212.181 409.747 213.077 411.539 212.992C413.331 212.907 414.525 211.968 415.123 210.176C415.72 208.384 415.933 206.165 415.763 203.52C415.677 200.875 415.379 198.229 414.867 195.584C414.355 192.939 413.843 190.677 413.331 188.8C412.819 186.837 412.562 185.728 412.562 185.472C412.562 185.131 412.435 184.533 412.179 183.68C412.008 182.741 412.008 181.717 412.179 180.608C412.435 179.499 413.16 178.475 414.354 177.536C415.549 176.597 417.512 176 420.243 175.744C422.973 175.488 425.107 175.659 426.643 176.256C428.264 176.768 429.416 177.451 430.099 178.304C430.867 179.157 431.336 179.968 431.507 180.736C431.677 181.419 431.763 181.76 431.763 181.76C431.763 181.76 432.061 182.784 432.659 184.832C433.256 186.88 433.811 189.525 434.323 192.768C434.835 195.925 435.005 199.296 434.835 202.88C434.749 206.464 433.981 209.877 432.531 213.12C431.165 216.277 428.861 218.88 425.619 220.928C422.461 222.976 418.024 224 412.307 224C406.589 224 401.896 222.933 398.227 220.8C394.557 218.667 391.656 215.936 389.523 212.608C387.475 209.195 385.981 205.611 385.043 201.856C384.104 198.101 383.549 194.56 383.379 191.232C383.208 187.819 383.165 185.045 383.251 182.912C383.421 180.779 383.507 179.712 383.507 179.712Z" fill="#16A085"/>
<path d="M164.898 294.44C167.799 294.184 170.061 294.312 171.682 294.824C173.389 295.251 174.626 295.848 175.394 296.616C176.247 297.384 176.759 298.109 176.93 298.792C177.186 299.389 177.314 299.688 177.314 299.688L183.842 323.496L187.042 314.152C187.042 314.152 187.298 313.64 187.81 312.616C188.407 311.592 189.474 310.568 191.01 309.544C192.546 308.52 194.765 308.051 197.666 308.136C200.653 308.136 202.829 308.605 204.194 309.544C205.645 310.483 206.583 311.421 207.01 312.36C207.522 313.299 207.778 313.768 207.778 313.768L211.106 323.24C211.106 323.24 211.319 322.472 211.746 320.936C212.258 319.315 212.898 317.309 213.666 314.92C214.434 312.445 215.202 309.971 215.97 307.496C216.738 305.021 217.378 302.845 217.89 300.968C218.487 299.005 218.871 297.768 219.042 297.256C219.298 296.403 219.767 295.549 220.45 294.696C221.133 293.843 222.327 293.16 224.034 292.648C225.826 292.051 228.429 291.88 231.842 292.136C234.402 292.307 236.279 292.733 237.474 293.416C238.669 294.099 239.437 294.867 239.778 295.72C240.119 296.573 240.247 297.299 240.162 297.896C240.077 298.493 240.034 298.792 240.034 298.792C240.034 298.792 239.693 299.688 239.01 301.48C238.413 303.272 237.602 305.576 236.578 308.392C235.554 311.208 234.445 314.237 233.25 317.48C232.141 320.723 231.031 323.837 229.922 326.824C228.898 329.811 228.002 332.371 227.234 334.504C226.466 336.552 225.997 337.789 225.826 338.216C225.485 339.069 224.93 340.051 224.162 341.16C223.479 342.184 222.413 343.08 220.962 343.848C219.597 344.616 217.591 345 214.946 345C212.386 345 210.295 344.701 208.674 344.104C207.138 343.507 205.986 342.909 205.218 342.312C204.535 341.715 204.194 341.416 204.194 341.416L197.026 330.664L191.01 340.136C191.01 340.136 190.754 340.563 190.242 341.416C189.73 342.184 188.663 342.995 187.042 343.848C185.421 344.616 182.903 345 179.49 345C176.93 345 174.925 344.616 173.474 343.848C172.023 343.08 170.914 342.227 170.146 341.288C169.463 340.349 168.994 339.496 168.738 338.728C168.567 337.96 168.482 337.576 168.482 337.576C168.482 337.576 168.183 336.637 167.586 334.76C166.989 332.883 166.178 330.493 165.154 327.592C164.215 324.691 163.191 321.661 162.082 318.504C161.058 315.261 160.034 312.232 159.01 309.416C158.071 306.6 157.303 304.381 156.706 302.76C155.938 300.797 155.81 299.261 156.322 298.152C156.919 297.043 157.773 296.232 158.882 295.72C159.991 295.208 161.143 294.909 162.338 294.824C163.533 294.653 164.386 294.525 164.898 294.44ZM271.925 292.136C276.192 292.051 279.818 292.435 282.805 293.288C285.792 294.056 288.266 294.995 290.229 296.104C292.192 297.213 293.728 298.195 294.837 299.048C295.946 299.901 296.757 300.328 297.269 300.328C298.208 300.413 298.89 300.883 299.317 301.736C299.744 302.504 299.957 302.888 299.957 302.888C299.957 302.888 300.085 303.741 300.341 305.448C300.597 307.155 300.896 309.331 301.237 311.976C301.664 314.621 302.048 317.395 302.389 320.296C302.73 323.197 303.029 325.928 303.285 328.488C303.541 331.048 303.669 333.053 303.669 334.504C303.669 336.893 303.498 338.813 303.157 340.264C302.901 341.715 302.048 342.824 300.597 343.592C299.146 344.275 296.757 344.744 293.429 345C290.954 345.171 289.162 345.128 288.053 344.872C286.944 344.616 286.261 344.317 286.005 343.976C285.749 343.635 285.621 343.464 285.621 343.464C284.853 344.061 283.573 344.488 281.781 344.744C280.074 344.915 278.453 345 276.917 345C275.381 345 274.613 345 274.613 345C274.613 345 273.632 344.872 271.669 344.616C269.706 344.275 267.274 343.635 264.373 342.696C261.557 341.672 258.698 340.179 255.797 338.216C252.981 336.168 250.634 333.48 248.757 330.152C246.88 326.739 245.984 322.515 246.069 317.48C246.154 312.445 247.093 308.349 248.885 305.192C250.677 301.949 252.853 299.432 255.413 297.64C257.973 295.848 260.49 294.568 262.965 293.8C265.525 293.032 267.658 292.563 269.365 292.392C271.072 292.221 271.925 292.136 271.925 292.136ZM281.525 305.32C281.098 304.723 280.16 304.083 278.709 303.4C277.344 302.632 276.021 301.992 274.741 301.48C273.546 300.968 272.949 300.797 272.949 300.968C272.949 301.053 272.48 301.779 271.541 303.144C270.688 304.424 269.792 306.344 268.853 308.904C268 311.379 267.53 314.365 267.445 317.864C267.36 321.363 267.829 324.392 268.853 326.952C269.877 329.512 271.114 331.475 272.565 332.84C274.101 334.205 275.509 334.888 276.789 334.888C277.728 334.888 278.624 334.461 279.477 333.608C280.33 332.669 281.056 331.645 281.653 330.536C282.25 329.341 282.72 328.317 283.061 327.464C283.402 326.611 283.573 326.184 283.573 326.184L281.525 305.32ZM314.82 336.296C314.82 335.357 314.692 333.736 314.436 331.432C314.18 329.128 313.839 326.525 313.412 323.624C313.071 320.637 312.687 317.693 312.26 314.792C311.833 311.805 311.364 309.16 310.852 306.856C310.425 304.467 310.041 302.76 309.7 301.736C308.847 299.176 309.316 297.384 311.108 296.36C312.985 295.251 315.588 294.525 318.916 294.184C322.244 293.843 324.633 294.099 326.084 294.952C327.62 295.72 328.388 296.104 328.388 296.104C329.668 294.824 331.759 293.928 334.66 293.416C337.647 292.904 340.761 292.691 344.004 292.776C348.185 292.861 351.215 293.501 353.092 294.696C354.969 295.891 355.908 297.171 355.908 298.536C355.908 299.56 355.78 300.328 355.524 300.84C355.268 301.352 354.244 301.864 352.452 302.376C350.745 302.803 347.631 303.571 343.108 304.68C340.463 305.277 338.5 306.728 337.22 309.032C335.94 311.251 335.129 313.853 334.788 316.84C334.532 319.741 334.532 322.643 334.788 325.544C335.044 328.36 335.343 330.749 335.684 332.712C336.025 334.589 336.196 335.613 336.196 335.784C336.196 335.955 336.239 336.552 336.324 337.576C336.495 338.515 336.367 339.581 335.94 340.776C335.599 341.885 334.703 342.867 333.252 343.72C331.801 344.573 329.497 345 326.34 345C323.183 345 320.793 344.573 319.172 343.72C317.551 342.781 316.441 341.757 315.844 340.648C315.247 339.539 314.905 338.557 314.82 337.704C314.82 336.765 314.82 336.296 314.82 336.296Z" fill="#16A085"/>
</svg>
